HIERARCHY
ROOT Hips
{
  OFFSET 5.84602e-005 68.8428 3.50346
  CHANNELS 6 Xposition Yposition Zposition Zrotation Xrotation Yrotation
  JOINT Spine
  {
    OFFSET 0 8.597 -4.6522
    CHANNELS 3 Zrotation Xrotation Yrotation
    JOINT Spine1
    {
      OFFSET 0 7.8454 0.4098
      CHANNELS 3 Zrotation Xrotation Yrotation
      JOINT Spine2
      {
        OFFSET 0 9.7078 -2.1609
        CHANNELS 3 Zrotation Xrotation Yrotation
        JOINT Neck
        {
          OFFSET 0 21.8761 -0.4549
          CHANNELS 3 Zrotation Xrotation Yrotation
          JOINT Head
          {
            OFFSET 0 12.3537 3.3602
            CHANNELS 3 Zrotation Xrotation Yrotation
            End Site
            {
              OFFSET 0.0001 18.9506 0.5657
            }
          }
        }
        JOINT LeftShoulder
        {
          OFFSET 2.2086 21.1115 7.2329
          CHANNELS 3 Zrotation Xrotation Yrotation
          JOINT LeftArm
          {
            OFFSET 13.1193 3.0282 -4.8998
            CHANNELS 3 Zrotation Xrotation Yrotation
            JOINT LeftForeArm
            {
              OFFSET 27.4081 -0.0973053 -0.2375
              CHANNELS 3 Zrotation Xrotation Yrotation
              JOINT LeftHand
              {
                OFFSET 22.8641 0.0662994 -0.1369
                CHANNELS 3 Zrotation Xrotation Yrotation
                JOINT LeftHandIndex1
                {
                  OFFSET 8.8614 0.775009 2.4612
                  CHANNELS 3 Zrotation Xrotation Yrotation
                  JOINT LeftHandIndex2
                  {
                    OFFSET 3.3146 -0.808304 0.5841
                    CHANNELS 3 Zrotation Xrotation Yrotation
                    JOINT LeftHandIndex3
                    {
                      OFFSET 2.2628 -0.552002 0.3989
                      CHANNELS 3 Zrotation Xrotation Yrotation
                      End Site
                      {
                        OFFSET 1.6102 -0.4807 0.2612
                      }
                    }
                  }
                }
                JOINT LeftHandMiddle1
                {
                  OFFSET 8.9937 0.895004 0.2143
                  CHANNELS 3 Zrotation Xrotation Yrotation
                  JOINT LeftHandMiddle2
                  {
                    OFFSET 4.0984 0.0113983 -0.0242
                    CHANNELS 3 Zrotation Xrotation Yrotation
                    JOINT LeftHandMiddle3
                    {
                      OFFSET 2.2716 0.00689697 -0.0138001
                      CHANNELS 3 Zrotation Xrotation Yrotation
                      End Site
                      {
                        OFFSET 2.0404 -0.1441 0.0027
                      }
                    }
                  }
                }
                JOINT LeftHandRing1
                {
                  OFFSET 8.5234 0.597198 -2.0164
                  CHANNELS 3 Zrotation Xrotation Yrotation
                  JOINT LeftHandRing2
                  {
                    OFFSET 3.7188 -0.188293 -0.2328
                    CHANNELS 3 Zrotation Xrotation Yrotation
                    JOINT LeftHandRing3
                    {
                      OFFSET 2.1191 -0.106598 -0.1332
                      CHANNELS 3 Zrotation Xrotation Yrotation
                      End Site
                      {
                        OFFSET 1.8737 -0.2304 -0.0886
                      }
                    }
                  }
                }
                JOINT LeftHandPinky1
                {
                  OFFSET 7.9094 -0.601089 -3.4825
                  CHANNELS 3 Zrotation Xrotation Yrotation
                  JOINT LeftHandPinky2
                  {
                    OFFSET 2.2874 -0.477005 -0.6314
                    CHANNELS 3 Zrotation Xrotation Yrotation
                    JOINT LeftHandPinky3
                    {
                      OFFSET 1.6774 -0.349396 -0.4633
                      CHANNELS 3 Zrotation Xrotation Yrotation
                      End Site
                      {
                        OFFSET 1.4888 -0.4091 -0.3416
                      }
                    }
                  }
                }
                JOINT LeftHandThumb1
                {
                  OFFSET 1.833 -1.3875 1.3896
                  CHANNELS 3 Zrotation Xrotation Yrotation
                  JOINT LeftHandThumb2
                  {
                    OFFSET 3.4129 -1.121 2.5732
                    CHANNELS 3 Zrotation Xrotation Yrotation
                    JOINT LeftHandThumb3
                    {
                      OFFSET 2.2474 -0.804199 1.6192
                      CHANNELS 3 Zrotation Xrotation Yrotation
                      End Site
                      {
                        OFFSET 1.6527 -0.5689 1.1317
                      }
                    }
                  }
                }
              }
            }
          }
        }
        JOINT RightShoulder
        {
          OFFSET -2.2086 21.1115 7.2329
          CHANNELS 3 Zrotation Xrotation Yrotation
          JOINT RightArm
          {
            OFFSET -13.1216 3.0287 -4.9007
            CHANNELS 3 Zrotation Xrotation Yrotation
            JOINT RightForeArm
            {
              OFFSET -27.4081 -0.0973053 -0.2375
              CHANNELS 3 Zrotation Xrotation Yrotation
              JOINT RightHand
              {
                OFFSET -22.8641 0.0664063 -0.1369
                CHANNELS 3 Zrotation Xrotation Yrotation
                JOINT RightHandIndex1
                {
                  OFFSET -8.8614 0.774994 2.4612
                  CHANNELS 3 Zrotation Xrotation Yrotation
                  JOINT RightHandIndex2
                  {
                    OFFSET -3.3146 -0.808304 0.5841
                    CHANNELS 3 Zrotation Xrotation Yrotation
                    JOINT RightHandIndex3
                    {
                      OFFSET -2.2628 -0.552002 0.3989
                      CHANNELS 3 Zrotation Xrotation Yrotation
                      End Site
                      {
                        OFFSET -1.6102 -0.4807 0.2612
                      }
                    }
                  }
                }
                JOINT RightHandMiddle1
                {
                  OFFSET -8.9937 0.894989 0.2143
                  CHANNELS 3 Zrotation Xrotation Yrotation
                  JOINT RightHandMiddle2
                  {
                    OFFSET -4.0984 0.0113983 -0.0242
                    CHANNELS 3 Zrotation Xrotation Yrotation
                    JOINT RightHandMiddle3
                    {
                      OFFSET -2.2716 0.00691223 -0.0138001
                      CHANNELS 3 Zrotation Xrotation Yrotation
                      End Site
                      {
                        OFFSET -2.0404 -0.1441 0.0027
                      }
                    }
                  }
                }
                JOINT RightHandRing1
                {
                  OFFSET -8.5234 0.597198 -2.0164
                  CHANNELS 3 Zrotation Xrotation Yrotation
                  JOINT RightHandRing2
                  {
                    OFFSET -3.7188 -0.188309 -0.2328
                    CHANNELS 3 Zrotation Xrotation Yrotation
                    JOINT RightHandRing3
                    {
                      OFFSET -2.1191 -0.106598 -0.1332
                      CHANNELS 3 Zrotation Xrotation Yrotation
                      End Site
                      {
                        OFFSET -1.8737 -0.2304 -0.0886
                      }
                    }
                  }
                }
                JOINT RightHandPinky1
                {
                  OFFSET -7.9094 -0.601105 -3.4825
                  CHANNELS 3 Zrotation Xrotation Yrotation
                  JOINT RightHandPinky2
                  {
                    OFFSET -2.2874 -0.477005 -0.6314
                    CHANNELS 3 Zrotation Xrotation Yrotation
                    JOINT RightHandPinky3
                    {
                      OFFSET -1.6774 -0.349396 -0.4633
                      CHANNELS 3 Zrotation Xrotation Yrotation
                      End Site
                      {
                        OFFSET -1.4888 -0.4091 -0.3416
                      }
                    }
                  }
                }
                JOINT RightHandThumb1
                {
                  OFFSET -1.833 -1.38751 1.3896
                  CHANNELS 3 Zrotation Xrotation Yrotation
                  JOINT RightHandThumb2
                  {
                    OFFSET -3.41299 -1.12099 2.5732
                    CHANNELS 3 Zrotation Xrotation Yrotation
                    JOINT RightHandThumb3
                    {
                      OFFSET -2.24741 -0.804108 1.6192
                      CHANNELS 3 Zrotation Xrotation Yrotation
                      End Site
                      {
                        OFFSET -1.6527 -0.5689 1.1317
                      }
                    }
                  }
                }
              }
            }
          }
        }
      }
    }
  }
  JOINT RightUpLeg
  {
    OFFSET -9.1966 3.8861 -0.7581
    CHANNELS 3 Zrotation Xrotation Yrotation
    JOINT RightLeg
    {
      OFFSET -0.7359 -41.0265 0
      CHANNELS 3 Zrotation Xrotation Yrotation
      JOINT RightFoot
      {
        OFFSET 0 -40.2855 0
        CHANNELS 3 Zrotation Xrotation Yrotation
        JOINT RightToeBase
        {
          OFFSET 0 -5.6122 11.7359
          CHANNELS 3 Zrotation Xrotation Yrotation
          End Site
          {
            OFFSET 0 0 7.8731
          }
        }
      }
    }
  }
  JOINT LeftUpLeg
  {
    OFFSET 9.1965 3.8864 -0.7581
    CHANNELS 3 Zrotation Xrotation Yrotation
    JOINT LeftLeg
    {
      OFFSET 0.7359 -41.0268 0
      CHANNELS 3 Zrotation Xrotation Yrotation
      JOINT LeftFoot
      {
        OFFSET 0 -40.2855 0
        CHANNELS 3 Zrotation Xrotation Yrotation
        JOINT LeftToeBase
        {
          OFFSET 0 -5.6122 11.7359
          CHANNELS 3 Zrotation Xrotation Yrotation
          End Site
          {
            OFFSET 0 0 7.8731
          }
        }
      }
    }
  }
}
MOTION
Frames:	5
Frame Time:	0.0333333
-6.7481 -2.95514 -34.4861 -89.9975 76.1254 -0.0050916 3.10581 2.84855 -1.10983 6.27775 5.63218 -2.37713 6.27776 5.63217 -2.37712 13.0152 3.56862 27.3978 10.6981 -26.696 -3.12768 69.8124 20.8282 -50.6939 16.1682 -18.1644 -44.8462 -32.7469 -25.4292 -53.2722 -35.7495 -50.6161 -84.343 -4.17735e-007 9.43391e-007 8.57365e-007 7.95139e-016 -4.77083e-015 6.36111e-015 -1.59028e-015 -4.77083e-015 6.36111e-015 -4.17735e-007 9.43391e-007 8.57365e-007 -0.0145945 -8.8022e-005 6.92273e-007 7.95139e-016 -3.18055e-015 3.18055e-015 -4.17735e-007 9.43391e-007 8.57365e-007 -0.018725 -0.00117443 6.01154e-005 -3.18055e-015 4.77083e-015 -3.18055e-015 -4.17735e-007 9.43391e-007 8.57365e-007 -0.0123485 -0.00327566 0.000683562 -1.59028e-015 4.77083e-015 6.36111e-015 -4.17735e-007 9.43391e-007 8.57365e-007 7.95139e-016 -4.77083e-015 6.36111e-015 -1.59028e-015 -4.77083e-015 6.36111e-015 8.46357 -20.3067 27.8078 77.2614 -4.86191 2.42842 50.4951 -34.243 86.6258 78.8822 -6.1783 -61.3464 -8.69683e-016 1.59028e-015 -0 -9.44227e-016 1.59028e-015 9.93923e-017 -2.48481e-016 1.59028e-015 -1.98785e-016 -8.69683e-016 1.59028e-015 -0 0.0150307 -9.20458e-005 1.26672e-006 -3.47873e-016 3.18055e-015 -0 -8.69683e-016 1.59028e-015 -0 0.0190294 -0.0011929 -5.99307e-005 8.69683e-016 -1.59028e-015 -9.93923e-017 -8.69683e-016 1.59028e-015 -0 0.012323 -0.00326029 -0.00068071 6.21202e-016 0 -9.93923e-017 -8.69683e-016 1.59028e-015 -0 -9.44227e-016 1.59028e-015 9.93923e-017 -2.48481e-016 1.59028e-015 -1.98785e-016 -2.49892 -13.2766 -0.894083 41.3679 50.5718 -37.3226 -3.95024 36.0353 0.606198 2.87386e-007 -3.12201e-007 1.83702e-006 -1.12833 -23.6676 -1.2587 -4.5909 11.6684 2.81434 5.59791 18.5083 1.2686 4.96962e-017 7.95139e-016 4.5969e-016 
-6.59809 -2.95527 -34.5236 -89.9972 76.5437 -0.00534943 3.10254 2.67995 -1.10735 6.26647 5.2954 -2.36219 6.26647 5.29541 -2.36221 13.0996 3.5798 27.4634 10.7237 -26.7735 -2.93599 69.9961 20.9694 -50.9365 16.1869 -18.188 -44.9562 -32.8851 -25.2553 -53.5908 -35.3739 -50.822 -84.1641 -1.19271e-014 6.36111e-015 -0 -1.27222e-014 3.18055e-015 -0 -1.19271e-014 4.77083e-015 -3.18055e-015 -1.19271e-014 6.36111e-015 -0 -0.0145598 -8.82218e-005 -4.95949e-006 5.56597e-015 -3.18055e-015 -6.36111e-015 -1.19271e-014 6.36111e-015 -0 -0.0186945 -0.00116955 5.96221e-005 7.95139e-016 -3.18055e-015 -3.18055e-015 -1.19271e-014 6.36111e-015 -0 -0.0123003 -0.0032564 0.000686728 7.95139e-016 -3.18055e-015 -3.18055e-015 -1.19271e-014 6.36111e-015 -0 -1.27222e-014 3.18055e-015 -0 -1.19271e-014 4.77083e-015 -3.18055e-015 8.43722 -19.9112 27.5198 77.4139 -4.85005 2.34807 50.4953 -34.0527 86.7493 78.9215 -6.26172 -61.519 -2.06239e-015 -4.77083e-015 -2.98177e-016 -2.26118e-015 -4.77083e-015 -2.98177e-016 -1.61513e-015 -3.18055e-015 -2.98177e-016 -2.06239e-015 -4.77083e-015 -2.98177e-016 0.0149619 -9.14947e-005 3.71546e-007 -5.2181e-016 -4.77083e-015 -1.98785e-016 -2.06239e-015 -4.77083e-015 -2.98177e-016 0.0189749 -0.00118892 -6.06998e-005 -1.2275e-014 1.59028e-015 3.18055e-015 -2.06239e-015 -4.77083e-015 -2.98177e-016 0.0122697 -0.00324671 -0.000677226 -1.39149e-015 -1.59028e-015 9.93923e-017 -2.06239e-015 -4.77083e-015 -2.98177e-016 -2.26118e-015 -4.77083e-015 -2.98177e-016 -1.61513e-015 -3.18055e-015 -2.98177e-016 -2.7011 -13.7394 -1.30352 41.3692 50.5725 -37.3412 -4.40251 36.1174 1.00786 9.96028e-006 5.39816e-008 9.56135e-007 -1.10551 -23.9829 -1.23975 -4.61982 11.2953 2.81881 5.63655 18.8379 1.20498 -4.96962e-017 -1.59028e-015 -7.76503e-016 
-6.44782 -2.95542 -34.5608 -89.997 76.9619 -0.00559002 3.09898 2.51143 -1.10474 6.25477 4.95893 -2.34717 6.25475 4.95895 -2.34718 13.1841 3.59103 27.5289 10.7496 -26.8508 -2.74421 70.1806 21.1099 -51.1799 16.2055 -18.2116 -45.0662 -33.0221 -25.0807 -53.9085 -34.9956 -51.0271 -83.9821 1.26177e-007 1.2348e-006 1.11272e-006 6.73514e-008 1.91324e-006 2.84285e-006 1.26177e-007 1.2348e-006 1.11272e-006 1.26177e-007 1.2348e-006 1.11272e-006 -0.0146004 -9.01638e-005 2.66795e-006 1.26225e-007 1.23466e-006 1.11288e-006 1.26177e-007 1.2348e-006 1.11272e-006 -0.0186956 -0.00116947 6.26379e-005 5.4554e-007 2.9673e-007 2.54651e-007 1.26177e-007 1.2348e-006 1.11272e-006 -0.0122414 -0.00323917 0.000675523 5.46099e-007 2.96564e-007 2.54677e-007 1.26177e-007 1.2348e-006 1.11272e-006 6.73514e-008 1.91324e-006 2.84285e-006 1.26177e-007 1.2348e-006 1.11272e-006 8.41306 -19.5156 27.2327 77.5665 -4.8384 2.26772 50.495 -33.8623 86.8726 78.9604 -6.34528 -61.6916 2.98177e-016 0 4.96962e-016 1.19271e-015 1.59028e-015 1.98785e-016 4.72114e-016 1.59028e-015 -0 2.98177e-016 0 4.96962e-016 0.0150293 -9.15091e-005 -4.47701e-007 -2.11209e-015 -3.18055e-015 5.96354e-016 2.98177e-016 0 4.96962e-016 0.0189743 -0.00118883 -5.92203e-005 -1.33931e-014 3.18055e-015 3.27995e-015 2.98177e-016 0 4.96962e-016 0.0123229 -0.00326271 -0.000679184 4.96962e-016 0 3.97569e-016 2.98177e-016 0 4.96962e-016 1.19271e-015 1.59028e-015 1.98785e-016 4.72114e-016 1.59028e-015 -0 -2.90706 -14.2006 -1.71537 41.3704 50.5732 -37.3596 -4.85583 36.197 1.41063 -4.67762e-007 -3.59915e-007 -2.32884e-006 -1.08249 -24.2978 -1.22059 -4.64867 10.9212 2.82302 5.67578 19.1679 1.14096 2.15516e-008 8.38999e-007 -2.56944e-007 
-6.29728 -2.95559 -34.5977 -89.9967 77.3802 -0.00583211 3.09523 2.34317 -1.10203 6.24261 4.62285 -2.33207 6.24263 4.62287 -2.33207 13.2683 3.60257 27.5944 10.7758 -26.928 -2.55234 70.3659 21.2496 -51.4239 16.224 -18.2352 -45.1762 -33.1578 -24.9054 -54.2253 -34.6146 -51.2315 -83.7973 -7.95139e-016 -1.59028e-015 -0 0 0 -6.36111e-015 7.95139e-016 0 -6.36111e-015 -7.95139e-016 -1.59028e-015 -0 -0.014571 -8.93707e-005 3.75531e-008 0 1.59028e-015 -0 -7.95139e-016 -1.59028e-015 -0 -0.0187657 -0.00117362 5.9717e-005 -3.53113e-031 -6.36111e-015 -3.18055e-015 -7.95139e-016 -1.59028e-015 -0 -0.0123471 -0.00326995 0.000673079 4.21664e-007 -9.35631e-007 -8.58702e-007 -7.95139e-016 -1.59028e-015 -0 0 0 -6.36111e-015 7.95139e-016 0 -6.36111e-015 8.39102 -19.12 26.9465 77.719 -4.82697 2.18733 50.4942 -33.672 86.9955 78.9992 -6.42891 -61.8642 -4.47266e-016 -3.18055e-015 -1.98785e-016 -4.96962e-016 -3.18055e-015 -2.98177e-016 -5.71506e-016 -3.18055e-015 -1.98785e-016 -4.47266e-016 -3.18055e-015 -1.98785e-016 0.0149748 -9.10309e-005 1.07927e-006 4.33845e-007 -9.52543e-009 -4.35164e-008 -4.47266e-016 -3.18055e-015 -1.98785e-016 0.0189687 -0.0011885 -6.14002e-005 -1.63997e-015 0 4.96962e-016 -4.47266e-016 -3.18055e-015 -1.98785e-016 0.0122833 -0.00325021 -0.000678095 -1.65521e-032 3.18055e-015 2.98177e-016 -4.47266e-016 -3.18055e-015 -1.98785e-016 -4.96962e-016 -3.18055e-015 -2.98177e-016 -5.71506e-016 -3.18055e-015 -1.98785e-016 -3.1167 -14.66 -2.12972 41.3709 50.5734 -37.3775 -5.31023 36.2742 1.81453 -4.69231e-007 -3.59768e-007 -2.32862e-006 -1.05923 -24.612 -1.20126 -4.67746 10.546 2.82702 5.7155 19.4985 1.07651 1.49089e-016 -7.95139e-016 2.48481e-016 
-6.1465 -2.95579 -34.6342 -89.9964 77.7984 -0.00612012 3.09115 2.17511 -1.09928 6.23009 4.28731 -2.31685 6.23006 4.28729 -2.31687 13.3529 3.61379 27.6598 10.8023 -27.0051 -2.36038 70.552 21.3886 -51.6686 16.2425 -18.2588 -45.2862 -33.2922 -24.7295 -54.5411 -34.2308 -51.435 -83.6094 -8.82781e-031 -7.95139e-015 -6.36111e-015 -7.95139e-016 -1.11319e-014 -3.18055e-015 7.95139e-016 -7.95139e-015 -0 -8.82781e-031 -7.95139e-015 -6.36111e-015 -0.0145708 -8.74888e-005 5.38002e-007 -2.38542e-015 -1.59028e-015 3.18055e-015 -8.82781e-031 -7.95139e-015 -6.36111e-015 -0.0187359 -0.00117414 5.80157e-005 1.59028e-015 -3.18055e-015 -6.36111e-015 -8.82781e-031 -7.95139e-015 -6.36111e-015 -0.012253 -0.00324361 0.000682128 -7.95139e-016 0 -6.36111e-015 -8.82781e-031 -7.95139e-015 -6.36111e-015 -7.95139e-016 -1.11319e-014 -3.18055e-015 7.95139e-016 -7.95139e-015 -0 8.37111 -18.7243 26.6612 77.8715 -4.81574 2.1069 50.493 -33.4817 87.1182 79.0376 -6.51269 -62.0367 1.73937e-016 4.77083e-015 -0 -1.49089e-015 4.77083e-015 1.98785e-016 -1.46604e-015 3.18055e-015 4.96962e-016 1.73937e-016 4.77083e-015 -0 0.0150036 -9.02578e-005 1.99507e-006 4.34326e-007 -1.24069e-008 -4.36868e-008 1.73937e-016 4.77083e-015 -0 0.019026 -0.00119271 -6.06913e-005 -5.46658e-016 4.77083e-015 -0 1.73937e-016 4.77083e-015 -0 0.0122882 -0.00325229 -0.000676519 3.47873e-016 -4.77083e-015 -1.98785e-016 1.73937e-016 4.77083e-015 -0 -1.49089e-015 4.77083e-015 1.98785e-016 -1.46604e-015 3.18055e-015 4.96962e-016 -3.33014 -15.1177 -2.54666 41.3709 50.5735 -37.3949 -5.76566 36.3489 2.2195 0 0 -3.18055e-015 -1.03575 -24.9252 -1.18173 -4.70615 10.1688 2.83076 5.75584 19.8299 1.01162 4.96962e-017 -1.59028e-015 -3.72721e-017 
